<?xml version="1.0" encoding="UTF-8" ?>
<!DOCTYPE svg PUBLIC "-//W3C//DTD SVG 1.1//EN" "http://www.w3.org/Graphics/SVG/1.1/DTD/svg11.dtd">
<svg width="651pt" height="186pt" viewBox="0 0 651 186" version="1.1" xmlns="http://www.w3.org/2000/svg">
<g id="#5d89d0ff">
<path fill="#5d89d0" opacity="1.00" d=" M 110.19 7.08 C 112.95 6.83 115.74 7.04 118.51 7.16 C 118.81 11.19 117.68 16.02 120.67 19.30 C 123.99 20.76 128.51 22.37 131.70 19.77 C 134.92 17.18 135.67 12.84 137.26 9.25 C 139.88 9.85 143.02 10.00 144.74 12.39 C 145.25 16.39 142.42 20.64 144.49 24.40 C 147.63 26.97 152.53 28.74 156.23 26.28 C 158.67 24.31 160.28 21.55 162.22 19.12 C 164.79 20.42 167.92 21.36 169.44 24.02 C 168.45 28.16 166.85 32.22 167.13 36.57 C 169.74 38.14 172.19 40.18 175.18 40.97 C 179.11 40.99 181.42 36.84 185.06 35.98 C 187.61 36.54 189.36 38.78 190.58 40.94 C 189.45 43.57 187.55 45.80 186.54 48.49 C 185.99 50.70 186.28 53.00 186.31 55.25 C 182.40 58.14 178.54 61.10 174.55 63.87 C 164.62 51.70 151.23 42.34 136.14 37.85 C 125.77 34.42 114.69 34.71 103.93 35.29 C 75.59 38.35 50.19 58.87 40.75 85.71 C 33.59 104.92 34.72 126.93 43.57 145.40 C 45.79 150.09 48.62 154.45 51.34 158.87 C 47.26 162.11 43.11 165.27 38.93 168.38 C 37.56 167.12 36.20 165.85 34.84 164.57 C 31.29 166.41 27.74 168.27 24.01 169.75 C 22.69 167.36 21.41 164.94 20.14 162.52 C 23.15 160.12 26.96 158.19 28.67 154.58 C 29.00 150.91 27.27 147.41 25.66 144.22 C 25.20 142.97 24.30 142.41 22.97 142.53 C 19.47 142.39 16.22 143.95 12.94 144.96 C 12.00 141.87 11.09 138.77 10.21 135.67 C 13.85 134.04 17.82 133.18 21.30 131.20 C 21.82 126.99 21.52 122.27 19.44 118.52 C 16.23 116.50 12.08 117.91 8.65 116.44 C 7.60 113.69 8.06 110.65 7.91 107.78 C 11.36 107.55 14.87 107.85 18.28 107.17 C 19.55 106.93 20.20 105.67 20.56 104.56 C 21.68 101.09 22.10 97.44 22.67 93.85 C 18.83 91.78 14.63 90.54 10.70 88.69 C 10.26 85.62 10.75 82.10 13.17 79.93 C 17.76 80.15 22.32 80.96 26.94 80.83 C 28.07 78.07 29.76 75.36 29.78 72.30 C 28.04 68.16 23.25 66.70 20.27 63.64 C 20.98 60.70 22.90 58.18 25.05 56.12 C 29.07 57.66 32.98 61.04 37.56 59.61 C 39.90 57.91 41.80 55.45 42.72 52.70 C 43.42 47.45 37.85 44.51 36.36 40.09 C 37.29 37.43 40.13 35.45 42.88 35.01 C 46.24 36.47 47.87 40.46 51.39 41.80 C 53.67 43.10 55.79 40.79 57.65 39.69 C 59.41 38.16 62.17 36.66 61.87 33.96 C 61.50 29.79 58.84 26.32 57.15 22.62 C 59.43 20.99 61.79 19.49 64.19 18.04 C 67.37 21.52 69.26 26.24 73.20 28.94 C 77.11 28.87 81.48 27.07 83.32 23.43 C 84.86 19.42 82.44 15.37 82.32 11.33 C 84.35 9.00 87.76 9.59 90.50 9.18 C 92.03 13.11 92.80 17.91 96.45 20.52 C 99.80 20.97 103.47 20.91 106.59 19.51 C 110.11 16.37 107.91 10.82 110.19 7.08 Z" />
<path fill="#5d89d0" opacity="1.00" d=" M 63.22 69.21 C 73.27 57.21 87.76 48.98 103.23 46.56 C 110.22 45.81 117.32 45.80 124.31 46.56 C 139.64 48.95 154.20 56.95 164.11 68.93 C 165.71 70.39 163.56 72.21 163.19 73.79 C 158.94 69.71 155.04 65.22 150.14 61.88 C 139.90 54.74 127.62 50.07 115.04 50.05 C 98.86 49.48 82.95 56.32 71.08 67.09 C 59.82 78.06 53.02 93.34 51.72 108.95 C 50.85 123.45 56.66 137.30 64.15 149.40 C 62.99 150.03 61.83 150.66 60.67 151.30 C 51.06 138.43 46.34 121.98 47.83 105.98 C 49.12 92.56 54.47 79.51 63.22 69.21 Z" />
<path fill="#5d89d0" opacity="1.00" d=" M 353.91 69.02 C 360.54 68.99 367.17 68.97 373.81 69.05 C 379.10 89.63 387.18 109.33 393.48 129.60 C 396.55 138.87 399.23 148.27 402.59 157.44 C 409.54 141.64 415.78 125.52 422.82 109.75 C 428.58 96.20 434.95 82.89 439.83 68.98 C 446.54 69.02 453.25 69.00 459.96 69.01 C 458.93 103.98 458.16 138.97 458.79 173.96 C 454.19 173.91 449.58 173.92 444.98 173.98 C 445.76 158.66 445.74 143.31 446.15 127.98 C 446.35 112.90 447.01 97.81 446.62 82.73 C 438.48 101.10 431.14 119.82 423.33 138.34 C 418.45 150.19 413.37 161.96 408.80 173.94 C 403.93 173.92 399.07 173.93 394.22 173.94 C 384.89 143.61 375.01 113.44 364.39 83.54 C 362.62 97.96 362.18 112.49 361.00 126.96 C 360.02 142.60 358.40 158.22 358.43 173.91 C 354.03 173.92 349.62 173.91 345.22 174.01 C 347.42 156.04 348.55 137.96 350.14 119.93 C 351.65 102.98 352.69 85.99 353.91 69.02 Z" />
<path fill="#5d89d0" opacity="1.00" d=" M 567.71 68.86 C 572.63 68.92 577.56 68.95 582.49 68.89 C 582.40 72.62 582.26 76.34 582.12 80.07 C 577.26 80.06 572.39 80.06 567.54 80.07 C 567.55 76.34 567.61 72.60 567.71 68.86 Z" />
<path fill="#5d89d0" opacity="1.00" d=" M 606.38 81.08 C 610.44 80.04 614.52 79.04 618.59 78.01 C 618.48 84.00 618.22 89.99 618.07 95.99 C 625.15 96.00 632.23 96.00 639.32 96.00 C 639.18 99.35 639.04 102.69 638.92 106.04 C 631.81 106.08 624.70 106.02 617.60 106.13 C 617.14 121.43 616.04 136.71 615.55 152.01 C 615.55 156.51 615.87 162.25 620.40 164.63 C 626.02 167.55 632.33 164.84 637.88 163.12 C 637.24 166.30 636.88 169.57 635.79 172.63 C 631.81 175.36 626.73 175.82 622.04 176.01 C 616.43 176.03 610.04 175.36 606.03 170.98 C 602.09 166.67 602.06 160.42 602.29 154.94 C 603.19 138.65 604.28 122.37 605.17 106.08 C 601.70 106.07 598.23 106.05 594.76 106.04 C 594.90 102.71 595.05 99.38 595.18 96.06 C 598.69 96.01 602.21 95.98 605.73 95.93 C 605.98 90.98 606.22 86.03 606.38 81.08 Z" />
<path fill="#5d89d0" opacity="1.00" d=" M 485.96 98.99 C 498.25 95.81 511.08 94.04 523.77 95.49 C 529.59 96.24 535.67 97.81 540.10 101.89 C 543.00 104.45 544.31 108.32 544.60 112.09 C 544.98 117.46 544.47 122.84 544.20 128.20 C 543.23 143.45 542.37 158.70 542.25 173.98 C 537.69 173.91 533.13 173.91 528.58 173.99 C 529.72 159.02 530.79 144.03 531.24 129.02 C 520.21 136.86 505.74 136.37 494.26 143.23 C 490.42 145.52 487.04 149.33 487.03 154.03 C 486.60 159.27 490.37 164.12 495.27 165.67 C 503.52 168.29 512.33 166.53 520.47 164.36 C 519.69 167.55 519.32 170.92 517.84 173.89 C 510.24 176.43 501.98 176.28 494.09 175.55 C 487.21 174.89 479.94 171.79 476.71 165.31 C 473.33 158.89 473.30 150.53 477.43 144.43 C 480.27 140.23 484.63 137.31 489.16 135.18 C 498.22 131.08 508.07 129.29 517.61 126.67 C 521.84 125.38 526.45 123.94 529.24 120.27 C 531.54 117.38 532.28 113.02 530.15 109.83 C 527.86 106.43 523.67 105.03 519.79 104.46 C 507.84 102.87 495.90 105.79 484.70 109.73 C 485.08 106.15 485.53 102.57 485.96 98.99 Z" />
<path fill="#5d89d0" opacity="1.00" d=" M 567.32 96.05 C 571.99 96.01 576.66 96.01 581.33 95.99 C 579.68 121.93 578.39 147.91 578.43 173.91 C 573.62 173.92 568.81 173.91 564.01 174.00 C 565.84 148.05 566.90 122.05 567.32 96.05 Z" />
</g>
<g id="#5e5e5eff">
<path fill="#5e5e5e" opacity="1.00" d=" M 92.25 75.22 C 101.01 67.99 113.16 67.41 123.99 68.36 C 128.80 69.02 133.90 69.24 138.27 71.54 C 139.00 74.94 139.09 78.44 139.40 81.90 C 130.47 79.30 121.03 76.83 111.72 78.71 C 105.17 80.01 98.76 85.10 98.19 92.11 C 97.66 98.15 101.72 103.23 105.75 107.24 C 114.41 115.63 124.49 122.43 133.02 130.98 C 137.15 135.16 140.76 140.26 141.63 146.20 C 143.00 154.60 139.97 163.88 133.01 169.03 C 124.77 175.26 113.92 176.36 103.92 175.90 C 96.16 175.60 88.57 173.87 81.07 172.03 C 80.79 167.72 80.47 163.42 80.12 159.12 C 90.00 163.43 100.73 167.11 111.66 165.60 C 117.74 164.76 124.30 161.77 126.67 155.71 C 129.05 150.03 127.15 143.37 122.90 139.11 C 116.51 132.46 109.13 126.85 102.21 120.78 C 95.96 115.41 89.31 109.91 85.75 102.28 C 81.65 93.13 84.35 81.47 92.25 75.22 Z" />
<path fill="#5e5e5e" opacity="1.00" d=" M 279.94 98.94 C 287.87 95.12 296.99 94.40 305.64 95.42 C 312.39 96.29 319.54 98.56 323.86 104.15 C 327.86 109.14 328.38 115.84 328.25 121.98 C 327.63 139.31 326.35 156.62 326.09 173.97 C 321.58 173.92 317.07 173.92 312.57 173.98 C 313.49 158.66 314.55 143.34 315.09 127.99 C 315.18 122.48 315.13 116.19 311.08 111.92 C 306.14 106.95 298.63 105.77 291.91 106.11 C 284.55 106.41 277.24 109.85 272.88 115.87 C 268.93 121.03 267.63 127.58 266.91 133.88 C 265.50 147.20 265.41 160.60 265.03 173.97 C 260.40 173.92 255.76 173.93 251.13 173.93 C 253.08 147.99 254.78 122.02 255.03 96.00 C 259.52 96.00 264.01 96.00 268.51 96.00 C 268.33 100.83 268.04 105.66 267.97 110.49 C 271.37 106.11 274.79 101.40 279.94 98.94 Z" />
<path fill="#5e5e5e" opacity="1.00" d=" M 160.47 96.11 C 165.07 96.00 169.67 95.99 174.27 96.00 C 173.20 111.66 172.06 127.33 171.43 143.02 C 171.36 148.22 171.33 154.01 174.67 158.33 C 178.15 162.60 183.82 164.27 189.10 164.80 C 197.29 165.55 206.37 163.36 211.87 156.88 C 217.04 150.87 218.61 142.74 219.08 135.05 C 219.88 122.08 220.42 109.09 220.43 96.10 C 225.00 96.01 229.57 96.00 234.14 96.00 C 232.57 121.95 230.71 147.90 230.67 173.91 C 226.36 173.92 222.06 173.93 217.76 173.98 C 217.82 169.30 217.94 164.62 218.02 159.93 C 215.22 164.35 212.17 168.91 207.46 171.49 C 200.07 175.62 191.29 176.42 182.98 175.81 C 175.43 175.17 167.46 172.47 162.72 166.24 C 159.15 161.66 158.40 155.63 158.44 150.00 C 158.90 132.03 160.72 114.09 160.47 96.11 Z" />
</g>
</svg>
